<?xml version="1.0" encoding="UTF-8"?>
<svg width="15px" height="19px" viewBox="0 0 15 19" version="1.1" xmlns="http://www.w3.org/2000/svg" xmlns:xlink="http://www.w3.org/1999/xlink">
    <!-- Generator: sketchtool 57.1 (101010) - https://sketch.com -->
    <title>167ACE03-5526-42AF-93F3-F51D5B7A50FE</title>
    <desc>Created with sketchtool.</desc>
    <g id="Homepage" stroke="none" stroke-width="1" fill="none" fill-rule="evenodd">
        <g id="Home-Full" transform="translate(-986.000000, -429.000000)" fill="#FFFFFF" fill-rule="nonzero">
            <g id="Available-on" transform="translate(885.000000, 429.000000)">
                <g id="001-apple" transform="translate(101.000000, 0.000000)">
                    <path d="M0.774094045,6.93740652 C-0.777658168,9.67772047 0.208819329,13.8362977 1.92480392,16.3577907 C2.78135188,17.6184148 3.64855178,18.75 4.83633279,18.75 C4.85871991,18.75 4.88116721,18.7495713 4.90415613,18.7486527 C5.4622092,18.7259928 5.86547821,18.5511443 6.25538717,18.3821751 C6.69313957,18.1923221 7.1458769,17.9960386 7.85600589,17.9960386 C8.53159132,17.9960386 8.96272387,18.1859528 9.37965385,18.3695591 C9.79056578,18.5504706 10.2138147,18.7376289 10.8392097,18.7256866 C12.1771408,18.700332 12.9986036,17.4792709 13.7233564,16.4020694 C14.4796438,15.2773433 14.8590212,14.185321 14.987025,13.7680119 L14.9922005,13.751415 C15.0165735,13.6772499 14.9821503,13.5962867 14.9122809,13.5636443 C14.9103551,13.5627256 14.9032538,13.5597247 14.9012679,13.5588673 C14.6656615,13.4608174 12.5989454,12.5277817 12.5772203,9.98473118 C12.5570598,7.91864041 14.1276485,6.82453584 14.4426329,6.6262313 L14.4573169,6.61692238 C14.4914392,6.59456872 14.5152104,6.55910908 14.5232746,6.51856627 C14.5313388,6.47808471 14.5229135,6.43594959 14.500045,6.40189853 C13.4159548,4.78741297 11.7543733,4.54409489 11.0854078,4.51482078 C10.9883367,4.50496068 10.8881363,4.5 10.7875147,4.5 C10.0017991,4.5 9.24912251,4.80198878 8.64442962,5.04463319 C8.2270182,5.21213254 7.86647728,5.35678829 7.61781178,5.35678829 C7.33839407,5.35678829 6.97580702,5.2103565 6.55592821,5.04083613 C5.99444486,4.81405364 5.35803688,4.55707839 4.68431704,4.55707839 C4.66824887,4.55707839 4.65242142,4.55726212 4.63683469,4.55756833 C3.07033827,4.58102437 1.59014058,5.49305376 0.774094045,6.93740652 Z" id="XMLID_229_"></path>
                    <path d="M11.0842378,0.000116444453 C10.1858831,0.0390234805 9.1082337,0.62705303 8.46411746,1.42931369 C7.91671554,2.10364171 7.3819657,3.22794597 7.52284832,4.36121945 C7.53168198,4.4321248 7.58593774,4.48684918 7.65301656,4.49236404 C7.71365536,4.49739408 7.77554797,4.4999394 7.83721261,4.5 C8.71562029,4.5 9.66321547,3.98323941 10.3103522,3.15116215 C10.9914559,2.27254188 11.3358546,1.14496507 11.2316744,0.134957808 C11.2234677,0.0558104727 11.1579846,-0.0029743014 11.0842378,0.000116444453 Z" id="XMLID_230_"></path>
                </g>
            </g>
        </g>
    </g>
</svg>