<?xml version="1.0" encoding="UTF-8"?>
<svg width="16px" height="19px" viewBox="0 0 16 19" version="1.1" xmlns="http://www.w3.org/2000/svg" xmlns:xlink="http://www.w3.org/1999/xlink">
    <!-- Generator: sketchtool 57.1 (101010) - https://sketch.com -->
    <title>CA1923D5-D13C-41D3-9DA0-EDBE62103425</title>
    <desc>Created with sketchtool.</desc>
    <g id="Homepage" stroke="none" stroke-width="1" fill="none" fill-rule="evenodd">
        <g id="Home-Full" transform="translate(-1020.000000, -430.000000)" fill="#FFFFFF" fill-rule="nonzero">
            <g id="Available-on" transform="translate(885.000000, 429.000000)">
                <g id="002-android-logo" transform="translate(135.000000, 1.000000)">
                    <path d="M1.14993229,5.95757378 L1.10275521,5.95757378 C0.497984375,5.95757378 0.00488541667,6.44831453 0.00488541667,7.04673032 L0.00488541667,11.788737 C0.00488541667,12.3895038 0.497984375,12.8786531 1.10275521,12.8786531 L1.15073438,12.8786531 C1.75550521,12.8786531 2.24860417,12.3879123 2.24860417,11.788737 L2.24860417,7.04669416 C2.24780208,6.44831453 1.7539375,5.95757378 1.14993229,5.95757378 Z" id="Shape"></path>
                    <path d="M2.77393229,13.6190683 C2.77393229,14.1698857 3.22769271,14.6184896 3.78291667,14.6184896 L4.86113542,14.6184896 L4.86113542,17.1798683 C4.86113542,17.7813947 5.35580208,18.2705802 5.95900521,18.2705802 L6.00618229,18.2705802 C6.61175521,18.2705802 7.10561979,17.7806351 7.10561979,17.1798683 L7.10561979,14.6184896 L8.61244271,14.6184896 L8.61244271,17.1798683 C8.61244271,17.7813947 9.10867708,18.2705802 9.71188021,18.2705802 L9.75829167,18.2705802 C10.3638281,18.2705802 10.8569271,17.7806351 10.8569271,17.1798683 L10.8569271,14.6184896 L11.9359115,14.6184896 C12.4903333,14.6184896 12.9441302,14.1698857 12.9441302,13.6190683 L12.9441302,6.13154659 L2.77393229,6.13154659 L2.77393229,13.6190683 Z" id="Shape"></path>
                    <path d="M10.3921198,1.59082031 L11.2485625,0.279333044 C11.3036146,0.196614583 11.279224,0.0835141782 11.1950781,0.0296585648 C11.1117344,-0.0249565972 10.9976927,-0.00231481481 10.9434062,0.0827184606 L10.0555365,1.43948929 C9.38944271,1.16876447 8.64547396,1.01663773 7.85979687,1.01663773 C7.07335417,1.01663773 6.33095312,1.16876447 5.66329167,1.43948929 L4.77698958,0.0827184606 C4.72273958,-0.00231481481 4.60789583,-0.0249565972 4.52375,0.0296585648 C4.43960417,0.0834780093 4.41521354,0.196614583 4.47026562,0.279333044 L5.32747396,1.59082031 C3.78211458,2.34215856 2.74009896,3.75821036 2.74009896,5.38255932 C2.74009896,5.48242187 2.74640625,5.58072917 2.75504687,5.67824074 L12.9653125,5.67824074 C12.9739531,5.58072917 12.9794583,5.48242187 12.9794583,5.38255932 C12.9794583,3.75821036 11.9366771,2.34215856 10.3921198,1.59082031 Z M5.49263021,3.93919994 C5.22130729,3.93919994 5.00109896,3.72229456 5.00109896,3.45236545 C5.00109896,3.18243634 5.22130729,2.96629051 5.49263021,2.96629051 C5.76552083,2.96629051 5.98416146,3.18240017 5.98416146,3.45236545 C5.98416146,3.72233073 5.76395313,3.93919994 5.49263021,3.93919994 Z M10.2261979,3.93919994 C9.954875,3.93919994 9.73466667,3.72229456 9.73466667,3.45236545 C9.73466667,3.18243634 9.954875,2.96629051 10.2261979,2.96629051 C10.4982865,2.96629051 10.7169271,3.18240017 10.7169271,3.45236545 C10.7169271,3.72229456 10.4982865,3.93919994 10.2261979,3.93919994 Z" id="Shape"></path>
                    <path d="M14.6152708,5.95757378 L14.5696615,5.95757378 C13.9648906,5.95757378 13.470224,6.44831453 13.470224,7.04673032 L13.470224,11.788737 C13.470224,12.3895038 13.9656927,12.8786531 14.5696615,12.8786531 L14.6160729,12.8786531 C15.2216094,12.8786531 15.7139427,12.3879123 15.7139427,11.788737 L15.7139427,7.04669416 C15.7139427,6.44831453 15.2200417,5.95757378 14.6152708,5.95757378 Z" id="Shape"></path>
                </g>
            </g>
        </g>
    </g>
</svg>