<?xml version="1.0" encoding="UTF-8"?>
<svg width="20px" height="20px" viewBox="0 0 20 20" version="1.1" xmlns="http://www.w3.org/2000/svg" xmlns:xlink="http://www.w3.org/1999/xlink">
    <!-- Generator: Sketch 52.6 (67491) - http://www.bohemiancoding.com/sketch -->
    <title>Combined Shape</title>
    <desc>Created with Sketch.</desc>
    <g id="PROMOTER_Events" stroke="none" stroke-width="1" fill="none" fill-rule="evenodd">
        <g id="Activity_Types" transform="translate(-302.000000, -1334.000000)" fill="#FF22B2" fill-rule="nonzero">
            <g id="Checked-in" transform="translate(277.000000, 1319.000000)">
                <g id="Attended-Event" transform="translate(20.000000, 10.000000)">
                    <path d="M19.8155556,6.72777778 L23.0211111,6.72777778 C24.1122703,6.72777778 24.9987278,7.61384181 25,8.70555556 L25,22.8733333 C25,23.9636267 24.1125156,24.8511111 23.0222222,24.8511111 L7.12555556,24.8511111 C6.03526215,24.8511111 5.14777778,23.9636267 5.14777778,22.8733333 L5.14777778,8.70555556 C5.14777778,7.61526215 6.03526215,6.72777778 7.12555556,6.72777778 L10.14,6.72777778 L10.14,7.91888889 L7.12555556,7.91888889 C6.69209057,7.91888889 6.33888889,8.27182933 6.33888889,8.70555556 L6.33888889,10.5655556 L23.8077778,10.5655556 L23.8077778,8.70555556 C23.8077778,8.27209057 23.4548373,7.91888889 23.0211111,7.91888889 L19.8155556,7.91888889 L19.8155556,8.70555556 C19.8155556,9.03473785 19.5491823,9.30111111 19.22,9.30111111 C18.8908177,9.30111111 18.6244444,9.03473785 18.6244444,8.70555556 L18.6244444,5.59555556 C18.6244444,5.26637326 18.8908177,5 19.22,5 C19.5491823,5 19.8155556,5.26637326 19.8155556,5.59555556 L19.8155556,6.72777778 Z M6.33888889,11.7566667 L6.33888889,22.8733333 C6.33888889,23.3067983 6.69182933,23.66 7.12555556,23.66 L23.0211111,23.66 C23.4545761,23.66 23.8077778,23.3070596 23.8077778,22.8733333 L23.8077778,22.6233333 L23.8088889,11.7566667 L6.33888889,11.7566667 Z M11.5222222,7.91888889 L11.5222222,8.70555556 C11.5222222,9.03473785 11.255849,9.30111111 10.9266667,9.30111111 C10.5974844,9.30111111 10.3311111,9.03473785 10.3311111,8.70555556 L10.3311111,5.59555556 C10.3311111,5.26637326 10.5974844,5 10.9266667,5 C11.255849,5 11.5222222,5.26637326 11.5222222,5.59555556 L11.5222222,6.72777778 L18.4333333,6.72777778 L18.4333333,7.91888889 L11.5222222,7.91888889 Z M18.4957926,14.5858463 C18.7245233,14.3460779 19.1043169,14.3371302 19.3440853,14.5658609 C19.5838537,14.7945917 19.5928015,15.1743853 19.3640707,15.4141537 L14.7095297,20.2933041 C14.4783161,20.5356751 14.0934311,20.5417922 13.8546321,20.3068913 L10.5792415,17.0849674 C10.3430067,16.8525889 10.3398806,16.4727028 10.5722591,16.236468 C10.8046376,16.0002333 11.1845238,15.9971072 11.4207585,16.2294857 L14.2618018,19.0241524 L18.4957926,14.5858463 Z" id="Combined-Shape"></path>
                </g>
            </g>
        </g>
    </g>
</svg>