<?xml version="1.0" encoding="UTF-8"?>
<svg width="18px" height="18px" viewBox="0 0 18 18" version="1.1" xmlns="http://www.w3.org/2000/svg" xmlns:xlink="http://www.w3.org/1999/xlink">
    <!-- Generator: Sketch 61.2 (89653) - https://sketch.com -->
    <title>Shape</title>
    <desc>Created with Sketch.</desc>
    <g id="Symbols" stroke="none" stroke-width="1" fill="none" fill-rule="evenodd">
        <g id="studio/icons/hospitality" transform="translate(-3.000000, -3.000000)" fill="#FFFFFF" fill-rule="nonzero">
            <g id="Shape">
                <path d="M20.1851852,4.12962963 L17.6666667,4.12962963 C17.5615185,4.12962963 17.4632963,4.1822037 17.4047407,4.26972222 L15.8193333,6.64814815 L10.4098704,6.64814815 C10.2502593,4.88581481 8.76622222,3.5 6.96296296,3.5 C5.05361111,3.5 3.5,5.05361111 3.5,6.96296296 C3.5,8.84587037 5.01111111,10.3796481 6.88425926,10.4218333 C7.52711111,12.5125185 9.41946296,14.0547963 11.6851852,14.1876481 L11.6851852,19.8703704 L9.48148148,19.8703704 C9.3077037,19.8703704 9.16666667,20.0110926 9.16666667,20.1851852 C9.16666667,20.3592778 9.3077037,20.5 9.48148148,20.5 L14.5185185,20.5 C14.6926111,20.5 14.8333333,20.3592778 14.8333333,20.1851852 C14.8333333,20.0110926 14.6926111,19.8703704 14.5185185,19.8703704 L12.3148148,19.8703704 L12.3148148,14.1876481 C15.1191852,14.0236296 17.3518519,11.6968333 17.3518519,8.85185185 L17.3518519,6.96296296 C17.3518519,6.78918519 17.2111296,6.64814815 17.037037,6.64814815 L16.5758333,6.64814815 L17.8350926,4.75925926 L20.1851852,4.75925926 C20.3592778,4.75925926 20.5,4.61822222 20.5,4.44444444 C20.5,4.27066667 20.3592778,4.12962963 20.1851852,4.12962963 Z M7.27777778,8.85185185 L7.27777778,7.27777778 L15.3993704,7.27777778 L13.720463,9.7962963 L7.37285185,9.7962963 C7.31051852,9.49092593 7.27777778,9.17516667 7.27777778,8.85185185 Z M4.12962963,6.96296296 C4.12962963,5.40085185 5.40085185,4.12962963 6.96296296,4.12962963 C8.41866667,4.12962963 9.62031481,5.23368519 9.77772222,6.64814815 L6.96296296,6.64814815 C6.78918519,6.64814815 6.64814815,6.78918519 6.64814815,6.96296296 L6.64814815,8.85185185 C6.64814815,9.17075926 6.6812037,9.48116667 6.73503704,9.78464815 C5.27901852,9.66785185 4.12962963,8.44825926 4.12962963,6.96296296 Z M12,13.5740741 C9.94866667,13.5740741 8.20364815,12.2568889 7.55324074,10.4259259 L13.3008148,10.4259259 L12.3677037,11.8252778 C12.2713704,11.9697778 12.3104074,12.1655926 12.4549074,12.2619259 C12.5087407,12.2978148 12.5695,12.3148148 12.6293148,12.3148148 C12.731,12.3148148 12.8311111,12.2657037 12.8915556,12.1747222 L14.0573148,10.4259259 L16.4467593,10.4259259 C15.7966667,12.2568889 14.0516481,13.5740741 12,13.5740741 Z M16.7222222,7.27777778 L16.7222222,8.85185185 C16.7222222,9.17516667 16.6894815,9.49092593 16.6268333,9.7962963 L14.476963,9.7962963 L16.1561852,7.27777778 L16.7222222,7.27777778 Z"></path>
            </g>
        </g>
    </g>
</svg>