<?xml version="1.0" encoding="UTF-8"?>
<svg width="20px" height="20px" viewBox="0 0 20 20" version="1.1" xmlns="http://www.w3.org/2000/svg" xmlns:xlink="http://www.w3.org/1999/xlink">
    <!-- Generator: Sketch 52.6 (67491) - http://www.bohemiancoding.com/sketch -->
    <title>Ticket Upgraded</title>
    <desc>Created with Sketch.</desc>
    <g id="PROMOTER_Events" stroke="none" stroke-width="1" fill="none" fill-rule="evenodd">
        <g id="Activity_Types" transform="translate(-299.000000, -69.000000)" fill-rule="nonzero">
            <g id="Purchased" transform="translate(277.000000, 54.000000)">
                <g id="Ticket-Upgraded" transform="translate(17.000000, 10.000000)">
                    <rect id="Rectangle" x="0" y="0" width="30" height="30"></rect>
                    <path d="M15,23.8 C19.8601058,23.8 23.8,19.8601058 23.8,15 C23.8,10.1398942 19.8601058,6.2 15,6.2 C10.1398942,6.2 6.2,10.1398942 6.2,15 C6.2,19.8601058 10.1398942,23.8 15,23.8 Z M15,25 C9.4771525,25 5,20.5228475 5,15 C5,9.4771525 9.4771525,5 15,5 C20.5228475,5 25,9.4771525 25,15 C25,20.5228475 20.5228475,25 15,25 Z M13.6571423,19.1216889 C13.3885361,18.9696751 13.1607899,18.7780504 12.9744938,18.547115 C12.7884619,18.3165069 12.6460879,18.0504968 12.5474221,17.7496699 C12.4490514,17.4497428 12.4,17.1220915 12.4,16.7670283 L12.5,16.6670283 L13.4534884,16.6670283 L13.5534884,16.7670283 C13.5534884,17.2608356 13.6764325,17.6378478 13.9196101,17.902853 C14.1606702,18.1655504 14.5184429,18.2981314 15,18.2981314 C15.4830395,18.2981314 15.842177,18.1753615 16.0831731,17.9330925 C16.3260332,17.6889496 16.4465116,17.392778 16.4465116,17.0388788 C16.4465116,16.7104799 16.3569925,16.4622567 16.179865,16.2879785 C15.9911316,16.1022811 15.7550931,15.9464905 15.4711494,15.8207962 C15.179748,15.6918006 14.8631198,15.5714349 14.521266,15.4597317 C14.1684767,15.3444554 13.8421129,15.1917288 13.5423595,15.0015591 C13.2375267,14.808167 12.9812034,14.5526722 12.7738847,14.2358941 C12.5625818,13.9130283 12.4581395,13.4897803 12.4581395,12.9677517 C12.4581395,12.7036064 12.507838,12.4387218 12.6069059,12.1735609 C12.7059352,11.9085031 12.8484791,11.6663872 13.0342396,11.4476292 C13.2200913,11.2287638 13.4431937,11.0445565 13.7030831,10.8952128 C13.9403178,10.7588875 14.1999202,10.6655072 14.4813953,10.6150768 L14.4813953,9.91860465 C14.4813953,9.63218721 14.7135826,9.4 15,9.4 C15.2864174,9.4 15.5186047,9.63218721 15.5186047,9.91860465 L15.5186047,10.6193418 C15.7723016,10.678827 16.0095377,10.7819583 16.2298075,10.928495 C16.471449,11.0892495 16.6810311,11.2846 16.8582404,11.5142564 C17.0357691,11.7443268 17.1737596,12.0073771 17.2722015,12.3029388 C17.3706081,12.5983948 17.4197674,12.9107489 17.4197674,13.2396022 L17.3197674,13.3396022 L16.372093,13.3396022 L16.272093,13.2396022 C16.272093,12.7808286 16.1481782,12.4119465 15.9013167,12.1283442 C15.6565536,11.8471526 15.3583761,11.7084991 15,11.7084991 C14.792044,11.7084991 14.602689,11.7446628 14.431178,11.8167257 C14.258274,11.8893737 14.1118166,11.9842285 13.9911459,12.1013068 C13.8705647,12.2182984 13.7772587,12.3523346 13.7107706,12.5039866 C13.6445652,12.654994 13.6116279,12.8093079 13.6116279,12.9677517 C13.6116279,13.2961506 13.7011471,13.5443738 13.8782746,13.718652 C14.0670079,13.9043494 14.3030464,14.06014 14.5869902,14.1858343 C14.8783916,14.3148299 15.1950197,14.4351956 15.5368736,14.5468988 C15.889578,14.6621474 16.2168242,14.8148229 16.518435,15.004912 C16.8253061,15.1983165 17.0817571,15.4527871 17.287224,15.7675163 C17.4966033,16.0882384 17.6,16.5125133 17.6,17.0388788 C17.6,17.329233 17.550406,17.6074121 17.4512337,17.8728526 C17.352037,18.1383581 17.2091497,18.3775903 17.0228631,18.5900401 C16.8367072,18.8023408 16.6094838,18.9820085 16.3417148,19.1289564 C16.0960722,19.2637617 15.8215525,19.3560154 15.5186047,19.4058757 L15.5186047,20.0813953 C15.5186047,20.3678128 15.2864174,20.6 15,20.6 C14.7135826,20.6 14.4813953,20.3678128 14.4813953,20.0813953 L14.4813953,19.4058255 C14.1780026,19.3555419 13.9030823,19.2608752 13.6571423,19.1216889 Z" id="Combined-Shape" fill="#FF22B2"></path>
                </g>
            </g>
        </g>
    </g>
</svg>