<?xml version="1.0" encoding="UTF-8"?>
<svg width="20px" height="20px" viewBox="0 0 20 20" version="1.1" xmlns="http://www.w3.org/2000/svg" xmlns:xlink="http://www.w3.org/1999/xlink">
    <!-- Generator: Sketch 52.6 (67491) - http://www.bohemiancoding.com/sketch -->
    <title>Combined Shape</title>
    <desc>Created with Sketch.</desc>
    <g id="PROMOTER_Events" stroke="none" stroke-width="1" fill="none" fill-rule="evenodd">
        <g id="Activity_Types" transform="translate(-302.000000, -1104.000000)" fill="#9DA3B4" fill-rule="nonzero">
            <g id="Note" transform="translate(277.000000, 1089.000000)">
                <g id="Transfer-Created-/-Open" transform="translate(20.000000, 10.000000)">
                    <path d="M19.4,22.6227167 L19.4,13 C19.4,12.7790861 19.2209139,12.6 19,12.6 L11,12.6 C10.7790861,12.6 10.6,12.7790861 10.6,13 L10.6,22.6227167 C11.8943628,23.3714651 13.3971366,23.8 15,23.8 C16.6028634,23.8 18.1056372,23.3714651 19.4,22.6227167 Z M20.6,21.7885406 C22.5544053,20.174474 23.8,17.7326991 23.8,15 C23.8,10.1398942 19.8601058,6.2 15,6.2 C10.1398942,6.2 6.2,10.1398942 6.2,15 C6.2,17.7326991 7.44559467,20.174474 9.4,21.7885406 L9.4,13 C9.4,12.1163444 10.1163444,11.4 11,11.4 L19,11.4 C19.8836556,11.4 20.6,12.1163444 20.6,13 L20.6,21.7885406 Z M15,25 C9.4771525,25 5,20.5228475 5,15 C5,9.4771525 9.4771525,5 15,5 C20.5228475,5 25,9.4771525 25,15 C25,20.5228475 20.5228475,25 15,25 Z M12.5,14 L17.5,14 C17.7761424,14 18,14.2238576 18,14.5 C18,14.7761424 17.7761424,15 17.5,15 L12.5,15 C12.2238576,15 12,14.7761424 12,14.5 C12,14.2238576 12.2238576,14 12.5,14 Z M12.5,16 L17.5,16 C17.7761424,16 18,16.2238576 18,16.5 C18,16.7761424 17.7761424,17 17.5,17 L12.5,17 C12.2238576,17 12,16.7761424 12,16.5 C12,16.2238576 12.2238576,16 12.5,16 Z M12.5,18 L14.5,18 C14.7761424,18 15,18.2238576 15,18.5 C15,18.7761424 14.7761424,19 14.5,19 L12.5,19 C12.2238576,19 12,18.7761424 12,18.5 C12,18.2238576 12.2238576,18 12.5,18 Z" id="Combined-Shape"></path>
                </g>
            </g>
        </g>
    </g>
</svg>