<?xml version="1.0" encoding="UTF-8"?>
<svg width="20px" height="20px" viewBox="0 0 20 20" version="1.1" xmlns="http://www.w3.org/2000/svg" xmlns:xlink="http://www.w3.org/1999/xlink">
    <!-- Generator: Sketch 52.6 (67491) - http://www.bohemiancoding.com/sketch -->
    <title>Combined Shape</title>
    <desc>Created with Sketch.</desc>
    <g id="PROMOTER_Events" stroke="none" stroke-width="1" fill="none" fill-rule="evenodd">
        <g id="Activity_Types" transform="translate(-302.000000, -1589.000000)" fill="#FF22B2" fill-rule="nonzero">
            <g id="Refunded" transform="translate(277.000000, 1574.000000)">
                <path d="M42.3764883,18.2448603 L42.5492351,16.1392711 C42.5763304,15.8090099 42.8660251,15.5632453 43.1962863,15.5903406 C43.5265475,15.6174359 43.7723121,15.9071306 43.7452168,16.2373919 L43.463684,19.6689609 C43.43737,19.9896987 43.1627021,20.2325593 42.841156,20.2193986 L39.3653447,20.0771357 C39.0342511,20.0635842 38.7768323,19.7841941 38.7903837,19.4531005 C38.8039352,19.1220069 39.0833253,18.8645881 39.4144189,18.8781395 L41.4027394,18.9595203 C40.4741731,17.9742051 39.3223754,17.2101826 38.0124988,16.7334265 C33.4454932,15.0711724 28.3956805,17.4259387 26.7334265,21.9929443 C25.0711724,26.5599498 27.4259387,31.6097625 31.9929443,33.2720166 C36.5599498,34.9342707 41.6097625,32.5795043 43.2720166,28.0124988 L44.3996477,28.422923 C42.5107226,33.612702 36.7722991,36.2885728 31.5825201,34.3996477 C26.392741,32.5107226 23.7168702,26.7722991 25.6057953,21.5825201 C27.4947204,16.392741 33.2331439,13.7168702 38.422923,15.6057953 C39.9882261,16.175519 41.3248384,17.0954324 42.3764883,18.2448603 Z M33.6598641,29.1244108 C33.391258,28.972397 33.1635118,28.7807723 32.9772157,28.5498368 C32.7911837,28.3192288 32.6488098,28.0532187 32.550144,27.7523918 C32.4517733,27.4524647 32.4027219,27.1248134 32.4027219,26.7697502 L32.5027219,26.6697502 L33.4562103,26.6697502 L33.5562103,26.7697502 C33.5562103,27.2635575 33.6791544,27.6405697 33.922332,27.9055748 C34.163392,28.1682723 34.5211648,28.3008533 35.0027219,28.3008533 C35.4857613,28.3008533 35.8448989,28.1780833 36.085895,27.9358143 C36.328755,27.6916715 36.4492335,27.3954999 36.4492335,27.0416007 C36.4492335,26.7132018 36.3597143,26.4649786 36.1825868,26.2907003 C35.9938535,26.105003 35.757815,25.9492124 35.4738712,25.8235181 C35.1824698,25.6945225 34.8658417,25.5741567 34.5239878,25.4624536 C34.1711986,25.3471772 33.8448348,25.1944507 33.5450814,25.004281 C33.2402486,24.8108889 32.9839253,24.5553941 32.7766066,24.238616 C32.5653037,23.9157502 32.4608614,23.4925022 32.4608614,22.9704735 C32.4608614,22.7063283 32.5105598,22.4414437 32.6096277,22.1762827 C32.7086571,21.911225 32.851201,21.6691091 33.0369615,21.4503511 C33.2228132,21.2314857 33.4459156,21.0472784 33.705805,20.8979347 C33.9430396,20.7616094 34.2026421,20.6682291 34.4841172,20.6177987 L34.4841172,19.9213265 C34.4841172,19.6349091 34.7163044,19.4027219 35.0027219,19.4027219 C35.2891393,19.4027219 35.5213265,19.6349091 35.5213265,19.9213265 L35.5213265,20.6220637 C35.7750235,20.6815489 36.0122595,20.7846801 36.2325294,20.9312169 C36.4741709,21.0919714 36.683753,21.2873218 36.8609622,21.5169782 C37.038491,21.7470487 37.1764815,22.010099 37.2749234,22.3056607 C37.37333,22.6011167 37.4224893,22.9134707 37.4224893,23.242324 L37.3224893,23.342324 L36.3748149,23.342324 L36.2748149,23.242324 C36.2748149,22.7835505 36.1509,22.4146684 35.9040385,22.1310661 C35.6592754,21.8498745 35.361098,21.711221 35.0027219,21.711221 C34.7947659,21.711221 34.6054109,21.7473847 34.4338999,21.8194475 C34.2609959,21.8920956 34.1145385,21.9869503 33.9938678,22.1040287 C33.8732865,22.2210203 33.7799805,22.3550565 33.7134925,22.5067085 C33.6472871,22.6577159 33.6143498,22.8120297 33.6143498,22.9704735 C33.6143498,23.2988725 33.703869,23.5470956 33.8809965,23.7213739 C34.0697298,23.9070713 34.3057683,24.0628619 34.5897121,24.1885562 C34.8811134,24.3175517 35.1977416,24.4379175 35.5395955,24.5496207 C35.8922999,24.6648693 36.2195461,24.8175448 36.5211569,25.0076339 C36.828028,25.2010384 37.084479,25.455509 37.2899459,25.7702382 C37.4993252,26.0909602 37.6027219,26.5152352 37.6027219,27.0416007 C37.6027219,27.3319549 37.5531279,27.610134 37.4539555,27.8755745 C37.3547589,28.14108 37.2118716,28.3803122 37.025585,28.592762 C36.8394291,28.8050627 36.6122057,28.9847304 36.3444367,29.1316783 C36.0987941,29.2664835 35.8242744,29.3587373 35.5213265,29.4085976 L35.5213265,30.0841172 C35.5213265,30.3705347 35.2891393,30.6027219 35.0027219,30.6027219 C34.7163044,30.6027219 34.4841172,30.3705347 34.4841172,30.0841172 L34.4841172,29.4085474 C34.1807245,29.3582638 33.9058042,29.2635971 33.6598641,29.1244108 Z" id="Combined-Shape"></path>
            </g>
        </g>
    </g>
</svg>