<?xml version="1.0" encoding="UTF-8"?>
<svg width="16px" height="24px" viewBox="0 0 16 24" version="1.1" xmlns="http://www.w3.org/2000/svg" xmlns:xlink="http://www.w3.org/1999/xlink">
    <!-- Generator: Sketch 63.1 (92452) - https://sketch.com -->
    <title>Combined Shape</title>
    <desc>Created with Sketch.</desc>
    <g id="Symbols" stroke="none" stroke-width="1" fill="none" fill-rule="evenodd">
        <g id="06-Icon/Media/Ticket" transform="translate(-4.000000, 0.000000)" fill="#FFFFFF" fill-rule="nonzero">
            <path d="M9.54385965,0 C10.2962566,0 10.917065,0.613249118 10.9874978,1.400526 L10.994152,1.55007257 C10.994152,2.13513465 11.4429329,2.61248186 12,2.61248186 C12.5172766,2.61248186 12.9411839,2.20089166 12.9991029,1.67365961 L13.005848,1.55007257 C13.005848,0.742757927 13.5823978,0.0820197127 14.3167102,0.00707928133 L14.4561404,0 L18.5497076,0 C19.3021045,0 19.922913,0.613249118 19.9933458,1.400526 L20,1.55007257 L20,22.4499274 C20,23.2572421 19.4234502,23.9179803 18.6891377,23.9929207 L18.5497076,24 L14.4561404,24 C13.7037434,24 13.082935,23.3867509 13.0125022,22.599474 L13.005848,22.4499274 C13.005848,21.8648653 12.5570671,21.3875181 12,21.3875181 C11.4827234,21.3875181 11.0588161,21.7991083 11.0008971,22.3263404 L10.994152,22.4499274 C10.994152,23.2572421 10.4176022,23.9179803 9.68328978,23.9929207 L9.54385965,24 L5.4502924,24 C4.69789548,24 4.07708704,23.3867509 4.0066542,22.599474 L4,22.4499274 L4,1.55007257 C4,0.742757927 4.5765498,0.0820197127 5.31086227,0.00707928133 L5.4502924,0 L9.54385965,0 Z M8.90444444,2 L6,2 L6,22 L8.90444444,22 L8.91696726,21.9363347 C9.23149194,20.4999069 10.3979039,19.4150953 11.8139343,19.3271882 L12,19.3214286 C13.4990586,19.3214286 14.7548331,20.4374535 15.0830327,21.9363347 L15.0944444,22 L18,22 L18,2 L15.0944444,2 L15.0830327,2.0636653 C14.7685081,3.50009315 13.6020961,4.58490467 12.1860657,4.67281183 L12,4.67857143 C10.5009414,4.67857143 9.24516693,3.56254653 8.91696726,2.0636653 L8.90444444,2 Z" id="Combined-Shape"></path>
        </g>
    </g>
</svg>