<?xml version="1.0" encoding="UTF-8"?>
<svg width="20px" height="20px" viewBox="0 0 20 20" version="1.1" xmlns="http://www.w3.org/2000/svg" xmlns:xlink="http://www.w3.org/1999/xlink">
    <!-- Generator: Sketch 52.6 (67491) - http://www.bohemiancoding.com/sketch -->
    <title>Transfer Created / Open</title>
    <desc>Created with Sketch.</desc>
    <g id="PROMOTER_Events" stroke="none" stroke-width="1" fill="none" fill-rule="evenodd">
        <g id="Activity_Types" transform="translate(-302.000000, -339.000000)" fill-rule="nonzero">
            <g id="Transfered" transform="translate(277.000000, 324.000000)">
                <g id="Transfer-Created-/-Open" transform="translate(20.000000, 10.000000)">
                    <rect id="Rectangle" x="0" y="0" width="30" height="30"></rect>
                    <path d="M11.5145521,17 L19.5,17 C19.7761424,17 20,17.2238576 20,17.5 C20,17.7761424 19.7761424,18 19.5,18 L11.2273154,18 L13.3055037,19.6042038 C13.5240959,19.7729404 13.5645118,20.0869325 13.3957752,20.3055247 C13.2270386,20.5241169 12.9130465,20.5645329 12.6944543,20.3957962 L9.69445428,18.0800237 C9.44692744,17.8889517 9.43354796,17.5201118 9.66658037,17.3116078 L12.6665804,14.6273804 C12.8723725,14.4432494 13.1884676,14.4608093 13.3725986,14.6666014 C13.5567295,14.8723935 13.5391697,15.1884887 13.3333776,15.3726196 L11.5145521,17 Z M18.4854268,12 L16.6666014,10.3726196 C16.4608093,10.1884887 16.4432494,9.87239353 16.6273804,9.6666014 C16.8115113,9.46080927 17.1276065,9.44324943 17.3333986,9.62738039 L20.3333986,12.3116078 C20.566431,12.5201118 20.5530515,12.8889517 20.3055247,13.0800237 L17.3055247,15.3957962 C17.0869325,15.5645329 16.7729404,15.5241169 16.6042038,15.3055247 C16.4354671,15.0869325 16.4758831,14.7729404 16.6944753,14.6042038 L18.7726636,13 L10.5,13 C10.2238576,13 10,12.7761424 10,12.5 C10,12.2238576 10.2238576,12 10.5,12 L18.4854268,12 Z M15,23.8 C19.8601058,23.8 23.8,19.8601058 23.8,15 C23.8,10.1398942 19.8601058,6.2 15,6.2 C10.1398942,6.2 6.2,10.1398942 6.2,15 C6.2,19.8601058 10.1398942,23.8 15,23.8 Z M15,25 C9.4771525,25 5,20.5228475 5,15 C5,9.4771525 9.4771525,5 15,5 C20.5228475,5 25,9.4771525 25,15 C25,20.5228475 20.5228475,25 15,25 Z" id="Combined-Shape" fill="#47C68A"></path>
                </g>
            </g>
        </g>
    </g>
</svg>