<?xml version="1.0" encoding="UTF-8"?>
<svg width="20px" height="20px" viewBox="0 0 20 20" version="1.1" xmlns="http://www.w3.org/2000/svg" xmlns:xlink="http://www.w3.org/1999/xlink">
    <!-- Generator: Sketch 52.6 (67491) - http://www.bohemiancoding.com/sketch -->
    <title>Combined Shape</title>
    <desc>Created with Sketch.</desc>
    <g id="PROMOTER_Events" stroke="none" stroke-width="1" fill="none" fill-rule="evenodd">
        <g id="Activity_Types" transform="translate(-302.000000, -594.000000)" fill="#FFB449" fill-rule="nonzero">
            <g id="Pending" transform="translate(277.000000, 579.000000)">
                <path d="M31.5145521,27 L39.5,27 C39.7761424,27 40,27.2238576 40,27.5 C40,27.7761424 39.7761424,28 39.5,28 L31.2273154,28 L33.3055037,29.6042038 C33.5240959,29.7729404 33.5645118,30.0869325 33.3957752,30.3055247 C33.2270386,30.5241169 32.9130465,30.5645329 32.6944543,30.3957962 L29.6944543,28.0800237 C29.4469274,27.8889517 29.433548,27.5201118 29.6665804,27.3116078 L32.6665804,24.6273804 C32.8723725,24.4432494 33.1884676,24.4608093 33.3725986,24.6666014 C33.5567295,24.8723935 33.5391697,25.1884887 33.3333776,25.3726196 L31.5145521,27 Z M38.4854268,22 L36.6666014,20.3726196 C36.4608093,20.1884887 36.4432494,19.8723935 36.6273804,19.6666014 C36.8115113,19.4608093 37.1276065,19.4432494 37.3333986,19.6273804 L40.3333986,22.3116078 C40.566431,22.5201118 40.5530515,22.8889517 40.3055247,23.0800237 L37.3055247,25.3957962 C37.0869325,25.5645329 36.7729404,25.5241169 36.6042038,25.3055247 C36.4354671,25.0869325 36.4758831,24.7729404 36.6944753,24.6042038 L38.7726636,23 L30.5,23 C30.2238576,23 30,22.7761424 30,22.5 C30,22.2238576 30.2238576,22 30.5,22 L38.4854268,22 Z M35,33.8 C39.8601058,33.8 43.8,29.8601058 43.8,25 C43.8,20.1398942 39.8601058,16.2 35,16.2 C30.1398942,16.2 26.2,20.1398942 26.2,25 C26.2,29.8601058 30.1398942,33.8 35,33.8 Z M35,35 C29.4771525,35 25,30.5228475 25,25 C25,19.4771525 29.4771525,15 35,15 C40.5228475,15 45,19.4771525 45,25 C45,30.5228475 40.5228475,35 35,35 Z" id="Combined-Shape"></path>
            </g>
        </g>
    </g>
</svg>